HIERARCHY
ROOT Hips
{
	OFFSET 0.00000 0.00000 0.00000
	CHANNELS 6 Xposition Yposition Zposition Zrotation Yrotation Xrotation 
	JOINT LHipJoint
	{
		OFFSET 0 0 0
		CHANNELS 3 Zrotation Yrotation Xrotation
		JOINT LeftHip
		{
			OFFSET 1.40001 -1.72600 0.84541
			CHANNELS 3 Zrotation Yrotation Xrotation
			JOINT LeftKnee
			{
				OFFSET 2.34760 -6.44999 0.00000
				CHANNELS 3 Zrotation Yrotation Xrotation
				JOINT LeftAnkle
				{
					OFFSET 2.50650 -6.88655 0.00000
					CHANNELS 3 Zrotation Yrotation Xrotation
					JOINT LeftToe
					{
						OFFSET 0.12464 -0.34243 1.95563
						CHANNELS 3 Zrotation Yrotation Xrotation
						End Site
						{
							OFFSET 0.00000 -0.00000 1.00479
						}
					}
				}
			}
		}
	}
	JOINT RHipJoint
	{
		OFFSET 0 0 0
		CHANNELS 3 Zrotation Yrotation Xrotation
		JOINT RightHip
		{
			OFFSET -1.40958 -1.72600 0.84541
			CHANNELS 3 Zrotation Yrotation Xrotation
			JOINT RightKnee
			{
				OFFSET -2.37905 -6.53640 0.00000
				CHANNELS 3 Zrotation Yrotation Xrotation
				JOINT RightAnkle
				{
					OFFSET -2.50470 -6.88163 0.00000
					CHANNELS 3 Zrotation Yrotation Xrotation
					JOINT RightToe
					{
						OFFSET -0.12236 -0.33619 1.81785
						CHANNELS 3 Zrotation Yrotation Xrotation
						End Site
						{
							OFFSET -0.00000 -0.00000 0.93746
						}
					}
				}
			}
		}
	}
	JOINT lowerback
	{
		OFFSET 0 0 0
		CHANNELS 3 Zrotation Yrotation Xrotation
		JOINT Chest
		{
			OFFSET -0.02146 1.96915 0.26424
			CHANNELS 3 Zrotation Yrotation Xrotation
			JOINT Chest2
			{
				OFFSET 0.01522 1.99484 0.02086
				CHANNELS 3 Zrotation Yrotation Xrotation
				JOINT lowerneck
				{
					OFFSET 0 0 0
					CHANNELS 3 Zrotation Yrotation Xrotation
					JOINT Neck
					{
						OFFSET -0.02954 1.71757 0.03505
						CHANNELS 3 Zrotation Yrotation Xrotation
						JOINT Head
						{
							OFFSET 0.04170 1.65781 -0.11024
							CHANNELS 3 Zrotation Yrotation Xrotation
							End Site
							{
								OFFSET 0.01600 1.81465 -0.05144
							}
						}
					}
				}
				JOINT LeftCollar
				{
					OFFSET 0 0 0
					CHANNELS 3 Zrotation Yrotation Xrotation
					JOINT LeftShoulder
					{
						OFFSET 2.77679 1.60868 -0.78649
CHANNELS 3 Zrotation Xrotation Yrotation
						JOINT LeftElbow
						{
OFFSET 0 -4.626720 -0.000000
CHANNELS 3 Zrotation Xrotation Yrotation
							JOINT LeftWrist
							{
OFFSET 0 -3.110180 -0.000000
CHANNELS 3 Zrotation Xrotation Yrotation
								JOINT lhand
								{
									OFFSET 0 0 0
CHANNELS 3 Zrotation Xrotation Yrotation
									JOINT LFingers
									{
OFFSET 0 -0.743830 -0.000000
CHANNELS 3 Zrotation Xrotation Yrotation
										End Site
										{
OFFSET 0 -0.599700 -0.000000
										}
									}
								}
								JOINT LThumb
								{
OFFSET 0 0.000000 0.000000
CHANNELS 3 Zrotation Xrotation Yrotation
									End Site
									{
OFFSET 0 -0.608850 0.608850
									}
								}
							}
						}
					}
				}
				JOINT RightCollar
				{
					OFFSET 0 0 0
					CHANNELS 3 Zrotation Yrotation Xrotation
					JOINT RightShoulder
					{
						OFFSET -2.73247 1.63658 -0.74740
CHANNELS 3 Zrotation Xrotation Yrotation
						JOINT RightElbow
						{
OFFSET 0 -4.559190 -0.000000
CHANNELS 3 Zrotation Xrotation Yrotation
							JOINT RightWrist
							{
OFFSET 0 -3.227480 -0.000000
CHANNELS 3 Zrotation Xrotation Yrotation
								JOINT rhand
								{
									OFFSET 0 0 0
CHANNELS 3 Zrotation Xrotation Yrotation
									JOINT RFingers
									{
OFFSET 0 -0.700880 -0.000000
CHANNELS 3 Zrotation Xrotation Yrotation
										End Site
										{
OFFSET 0 -0.565070 -0.000000
										}
									}
								}
								JOINT RThumb
								{
OFFSET 0 0.000000 0.000000
CHANNELS 3 Zrotation Xrotation Yrotation
									End Site
									{
OFFSET 0 -0.573700 0.573700
									}
								}
							}
						}
					}
				}
			}
		}
	}
}
MOTION
Frames: 7
Frame Time: 0.008333333333333333
-0.687300 15.942600 -43.511000 -0.280500 2.593400 16.809400 0.000000 0.000000 0.000000 -18.679300 -3.818500 -10.380300 8.077300 16.175800 52.840800 1.453000 -4.229400 24.635600 0.691700 -5.316700 -14.814100 0.000000 0.000000 0.000000 16.956400 15.582200 -48.274500 -4.655500 -12.985000 39.312500 -0.111600 6.788700 -7.123900 -0.407100 4.096200 -11.347300 2.777400 -1.729700 -14.480600 2.670300 -2.806200 -4.223500 0.746200 -1.379200 3.648200 1.769000 -1.299400 -6.580100 -2.796000 -1.623100 11.382000 -1.241400 -0.887100 4.446800 0.000000 0.000000 0.000000 6.072200 -0.224000 -29.033600 30.831300 -41.595300 11.957700 25.557100 -19.796600 18.230600 0.000000 0.000000 0.000000 -7.125000 0.000000 0.000000 -1.646800 9.929400 -1.338800 0.000000 0.000000 0.000000 -1.016500 13.234600 -53.000100 -6.072200 -10.382500 -0.552200 -19.114200 60.538600 35.125800 0.000000 0.000000 0.000000 7.125000 0.000000 -0.000000 18.552400 65.752000 -9.440700
-0.689922 15.958914 -43.376993 -0.409088 2.683068 16.717343 0.000000 0.000000 0.000000 -18.430281 -4.079230 -11.324872 8.578893 16.520722 54.609222 1.576752 -4.111066 25.491145 1.217938 -6.860166 -19.356402 0.000000 0.000000 0.000000 17.344961 15.343085 -47.709982 -4.684515 -13.019434 39.441379 -0.140674 6.837409 -7.660626 -0.547632 4.710591 -13.090319 2.943860 -1.702433 -14.070132 2.702811 -2.767280 -4.412508 0.709960 -1.366207 3.221534 1.748433 -1.367510 -6.513097 -2.743504 -1.714632 11.650072 -1.228815 -0.929982 4.516134 0.000000 0.000000 0.000000 5.928929 0.262269 -29.148321 30.370958 -41.206914 11.654087 25.365121 -20.007573 18.302905 0.000000 0.000000 0.000000 -7.125000 0.000000 0.000000 -1.778826 9.881682 -1.447986 0.000000 0.000000 0.000000 -0.947924 13.219277 -51.446730 -6.130347 -10.479276 -0.562746 -19.314336 59.248057 35.309389 0.000000 0.000000 0.000000 7.125000 0.000000 0.000000 18.509343 65.980802 -9.515161
-0.692197 15.975459 -43.242921 -0.542668 2.746441 16.643566 0.000000 0.000000 0.000000 -18.180551 -4.293816 -12.302384 9.076833 16.852884 56.349432 1.641617 -4.164140 26.002488 1.839061 -8.436042 -24.103464 0.000000 0.000000 0.000000 17.730365 15.128002 -47.145481 -4.707730 -13.046959 39.544426 -0.172425 6.840617 -8.212309 -0.755382 5.491597 -15.332206 3.106766 -1.665017 -13.806296 2.739504 -2.724575 -4.526695 0.674563 -1.348884 2.953153 1.688464 -1.420895 -6.459514 -2.658697 -1.786976 11.846364 -1.198232 -0.963179 4.566973 0.000000 0.000000 0.000000 5.793476 0.600650 -29.278099 29.877660 -40.786216 11.330394 25.235599 -20.173376 18.315596 0.000000 0.000000 0.000000 -7.125000 0.000000 0.000000 -1.864475 9.888472 -1.517424 0.000000 0.000000 0.000000 -0.884520 13.098227 -49.814275 -6.194081 -10.585341 -0.574382 -19.489416 57.904065 35.491210 0.000000 0.000000 0.000000 7.125000 0.000000 0.000000 18.494796 66.200811 -9.601026
-0.693595 15.992589 -43.108681 -0.688851 2.743411 16.615949 0.000000 0.000000 0.000000 -17.929026 -4.391874 -13.363076 9.565550 17.152826 58.018397 1.557775 -4.650060 25.644632 2.699792 -10.093763 -29.367596 0.000000 0.000000 0.000000 18.107798 14.973603 -46.581022 -4.716294 -13.057039 39.582240 -0.210937 6.728925 -8.801764 -1.132873 6.693346 -18.833858 3.260699 -1.601976 -13.912744 2.786756 -2.672312 -4.451943 0.641294 -1.320626 3.084480 1.528996 -1.437092 -6.439821 -2.492296 -1.810864 11.861396 -1.122197 -0.971919 4.571110 0.000000 0.000000 0.000000 5.677764 0.565576 -29.445899 29.301140 -40.283924 10.955991 25.263799 -20.225115 18.177744 0.000000 0.000000 0.000000 -7.125000 0.000000 0.000000 -1.833013 10.032908 -1.486486 0.000000 0.000000 0.000000 -0.834180 12.710190 -47.982112 -6.271921 -10.714861 -0.588773 -19.601225 56.425097 35.668565 0.000000 0.000000 0.000000 7.125000 0.000000 0.000000 18.552244 66.398617 -9.715689
-0.695621 16.009619 -42.976292 -0.820722 2.733175 16.634345 0.000000 0.000000 0.000000 -17.674262 -4.499551 -14.497282 10.046399 17.430356 59.635896 1.496510 -4.404933 25.063488 2.837839 -10.405678 -30.322038 0.000000 0.000000 0.000000 18.452837 14.848921 -46.073516 -4.726446 -13.068970 39.627127 -0.257878 6.605829 -9.487144 -1.450303 7.589897 -21.486425 3.437109 -1.521845 -14.070791 2.794738 -2.601935 -4.387173 0.556360 -1.283047 3.230846 1.392039 -1.445753 -6.388692 -2.311615 -1.828803 11.852761 -1.044643 -0.975766 4.562818 0.000000 0.000000 0.000000 5.620461 0.435104 -29.646456 28.613654 -39.668848 10.515544 25.313650 -20.149062 18.018141 0.000000 0.000000 0.000000 -7.125000 0.000000 0.000000 -1.785353 10.197706 -1.441929 0.000000 0.000000 0.000000 -0.740604 12.277892 -46.498945 -6.340176 -10.828284 -0.601512 -19.547129 55.189580 35.702461 0.000000 0.000000 0.000000 7.125000 0.000000 0.000000 18.652036 66.414520 -9.775944
-0.698127 16.026574 -42.845315 -0.941678 2.717444 16.687831 0.000000 0.000000 0.000000 -17.417027 -4.614563 -15.687553 10.521249 17.690795 61.214145 1.452463 -3.602291 24.312061 2.424749 -9.691248 -27.989797 0.000000 0.000000 0.000000 18.773171 14.746901 -45.609445 -4.737807 -13.082312 39.677408 -0.311248 6.474037 -10.245680 -1.721929 8.253696 -23.491456 3.630661 -1.428681 -14.268188 2.772773 -2.517744 -4.330016 0.432026 -1.238358 3.388683 1.272248 -1.448666 -6.313590 -2.120044 -1.842203 11.826076 -0.965928 -0.975883 4.545048 0.000000 0.000000 0.000000 5.607701 0.231880 -29.871995 27.841542 -38.967760 10.024730 25.380012 -19.975552 17.841952 0.000000 0.000000 0.000000 -7.125000 0.000000 0.000000 -1.725342 10.378032 -1.386986 0.000000 0.000000 0.000000 -0.614055 11.811840 -45.281932 -6.401120 -10.929430 -0.612990 -19.366512 54.139725 35.626951 0.000000 0.000000 0.000000 7.125000 0.000000 0.000000 18.784120 66.291700 -9.794705
-0.700434 16.043231 -42.717016 -1.084797 2.767658 16.728326 0.000000 0.000000 0.000000 -17.097914 -4.777423 -16.864089 10.974233 17.917270 62.691494 1.350206 -2.965751 23.183953 2.032533 -8.899469 -25.504644 0.000000 0.000000 0.000000 19.105009 14.633973 -45.122765 -4.745698 -13.091539 39.712220 -0.356883 6.435162 -10.867864 -1.645236 8.078557 -22.956121 3.732089 -1.310726 -14.178800 2.801580 -2.369195 -4.381495 0.432837 -1.166499 3.285516 1.313255 -1.542712 -6.449958 -2.157048 -1.968355 12.031835 -0.994511 -1.038820 4.627930 0.000000 0.000000 0.000000 5.481348 0.168231 -30.202005 27.056391 -38.225320 9.536990 25.147590 -19.666038 18.096338 0.000000 0.000000 0.000000 -7.125000 0.000000 0.000000 -1.900947 10.139534 -1.538456 0.000000 0.000000 0.000000 -0.515769 11.467613 -43.821170 -6.494738 -11.084621 -0.630963 -19.091141 52.505440 35.365605 0.000000 0.000000 0.000000 7.125000 0.000000 0.000000 18.831170 65.969310 -9.680683
